<svg display="none" xmlns="http://www.w3.org/2000/svg">
    <symbol id="facebook" viewBox="0 0 20 20">
        <g>
            <path d="M17.0698 0L2.9292 0C1.3139 0 -0.000488281 1.31439 -0.000488281 2.92969L-0.000488281 17.0703C-0.000488281 18.6856 1.3139 20 2.9292 20L8.82764 20L8.82764 12.9297L6.48389 12.9297L6.48389 9.41406L8.82764 9.41406L8.82764 7.03125C8.82764 5.09262 10.4046 3.51563 12.3433 3.51563L15.8979 3.51563L15.8979 7.03125L12.3433 7.03125L12.3433 9.41406L15.8979 9.41406L15.312 12.9297L12.3433 12.9297L12.3433 20L17.0698 20C18.6851 20 19.9995 18.6856 19.9995 17.0703L19.9995 2.92969C19.9995 1.31439 18.6851 0 17.0698 0Z"/>
        </g>
    </symbol>
    <symbol id="github" viewBox="0 0 20 19">
        <g>
            <path d="M10 0C4.475 0 0 4.36167 0 9.74107C0 14.0457 2.865 17.6962 6.8375 18.9832C7.3375 19.0749 7.52083 18.7734 7.52083 18.5148C7.52083 18.2835 7.5125 17.6706 7.50833 16.8585C4.72667 17.4459 4.14 15.5517 4.14 15.5517C3.685 14.4274 3.0275 14.1267 3.0275 14.1267C2.12167 13.5228 3.0975 13.5352 3.0975 13.5352C4.10167 13.603 4.62917 14.5389 4.62917 14.5389C5.52083 16.0283 6.97 15.5979 7.54167 15.3493C7.63167 14.719 7.88917 14.2903 8.175 14.0466C5.95417 13.8029 3.62 12.9652 3.62 9.23304C3.62 8.16988 4.0075 7.30085 4.64917 6.61934C4.53667 6.37317 4.19917 5.3827 4.73667 4.04116C4.73667 4.04116 5.57417 3.78012 7.48667 5.03988C8.28667 4.82345 9.13667 4.71606 9.98667 4.7111C10.8367 4.71606 11.6867 4.82345 12.4867 5.03988C14.3867 3.78012 15.2242 4.04116 15.2242 4.04116C15.7617 5.3827 15.4242 6.37317 15.3242 6.61934C15.9617 7.30085 16.3492 8.16988 16.3492 9.23304C16.3492 12.9752 14.0117 13.7987 11.7867 14.0383C12.1367 14.3307 12.4617 14.928 12.4617 15.8408C12.4617 17.1444 12.4492 18.1918 12.4492 18.5082C12.4492 18.7635 12.6242 19.0683 13.1367 18.9708C17.1375 17.692 20 14.0391 20 9.74107C20 4.36167 15.5225 0 10 0Z"/>
        </g>
    </symbol>
    <symbol id="instagram" viewBox="0 0 20 20">
        <g>
            <path d="M13.7495 0L6.24951 0C2.79826 0 -0.000488281 2.79875 -0.000488281 6.25L-0.000488281 13.75C-0.000488281 17.2013 2.79826 20 6.24951 20L13.7495 20C17.2008 20 19.9995 17.2013 19.9995 13.75L19.9995 6.25C19.9995 2.79875 17.2008 0 13.7495 0ZM18.1245 13.75C18.1245 16.1625 16.162 18.125 13.7495 18.125L6.24951 18.125C3.83701 18.125 1.87451 16.1625 1.87451 13.75L1.87451 6.25C1.87451 3.8375 3.83701 1.875 6.24951 1.875L13.7495 1.875C16.162 1.875 18.1245 3.8375 18.1245 6.25L18.1245 13.75Z"/>
            <path d="M9.99951 5C7.23826 5 4.99951 7.23875 4.99951 10C4.99951 12.7613 7.23826 15 9.99951 15C12.7608 15 14.9995 12.7613 14.9995 10C14.9995 7.23875 12.7608 5 9.99951 5ZM9.99951 13.125C8.27701 13.125 6.87451 11.7225 6.87451 10C6.87451 8.27625 8.27701 6.875 9.99951 6.875C11.722 6.875 13.1245 8.27625 13.1245 10C13.1245 11.7225 11.722 13.125 9.99951 13.125Z"/>
            <path d="M15.3745 5.29123C15.7425 5.29123 16.0408 4.99295 16.0408 4.62499C16.0408 4.25703 15.7425 3.95874 15.3745 3.95874C15.0065 3.95874 14.7083 4.25703 14.7083 4.62499C14.7083 4.99295 15.0065 5.29123 15.3745 5.29123Z"/>
        </g>
    </symbol>
    <symbol id="telegram" viewBox="0 0 30 30">
        <g>
            <path d="M15 30C23.2863 30 30 23.2863 30 15C30 6.71375 23.2863 0 15 0C6.71375 0 0 6.71375 0 15C0 23.2863 6.71375 30 15 30ZM6.86375 14.675L21.3263 9.09875C21.9975 8.85625 22.5837 9.2625 22.3662 10.2775L22.3675 10.2762L19.905 21.8775C19.7225 22.7 19.2337 22.9 18.55 22.5125L14.8 19.7487L12.9912 21.4913C12.7912 21.6913 12.6225 21.86 12.235 21.86L12.5013 18.0438L19.4513 11.765C19.7537 11.4987 19.3837 11.3488 18.985 11.6138L10.3963 17.0212L6.69375 15.8663C5.89 15.6112 5.8725 15.0625 6.86375 14.675Z"/>
        </g>
    </symbol>
    <symbol id="close" viewBox="0 0 29 30">
        <g>
            <path d="M17.1568 14.5231L28.4489 3.23075C29.1837 2.49623 29.1837 1.30861 28.4489 0.574085C27.7144 -0.160437 26.5267 -0.160437 25.7922 0.574085L14.4998 11.8665L3.20781 0.574085C2.47295 -0.160437 1.28567 -0.160437 0.551149 0.574085C-0.183716 1.30861 -0.183716 2.49623 0.551149 3.23075L11.8432 14.5231L0.551149 25.8155C-0.183716 26.55 -0.183716 27.7376 0.551149 28.4721C0.917206 28.8385 1.39852 29.0226 1.87948 29.0226C2.36045 29.0226 2.84141 28.8385 3.20781 28.4721L14.4998 17.1798L25.7922 28.4721C26.1586 28.8385 26.6396 29.0226 27.1205 29.0226C27.6015 29.0226 28.0825 28.8385 28.4489 28.4721C29.1837 27.7376 29.1837 26.55 28.4489 25.8155L17.1568 14.5231Z"/>
        </g>
    </symbol>
    <symbol id="web" viewBox="0 -57 512.00002 512">
        <g>
            <path d="M 504.394531 300.101562 L 482.601562 300.101562 L 482.601562 52.742188 C 482.601562 23.660156 458.941406 0 429.859375 0 L 71.480469 0.0703125 C 71.339844 0.0703125 71.199219 0.0742188 71.054688 0.0820312 C 43.152344 1.644531 21.296875 24.773438 21.296875 52.742188 L 21.296875 300.101562 L 7.605469 300.101562 C 3.40625 300.101562 0 303.507812 0 307.707031 L 0 337.464844 C 0 370.382812 26.777344 397.160156 59.695312 397.160156 L 379.695312 397.160156 C 383.898438 397.160156 387.300781 393.757812 387.300781 389.558594 C 387.300781 385.359375 383.898438 381.953125 379.695312 381.953125 L 59.695312 381.953125 C 35.164062 381.953125 15.207031 361.996094 15.207031 337.464844 L 15.207031 315.3125 L 178.78125 315.3125 L 178.78125 323.003906 C 178.78125 341.328125 193.6875 356.234375 212.011719 356.234375 L 273.632812 356.234375 C 291.957031 356.234375 306.863281 341.328125 306.863281 323.003906 L 306.863281 315.3125 L 496.792969 315.3125 L 496.792969 337.464844 C 496.792969 361.996094 476.835938 381.953125 452.304688 381.953125 L 405.046875 381.953125 C 400.847656 381.953125 397.441406 385.359375 397.441406 389.558594 C 397.441406 393.757812 400.847656 397.160156 405.046875 397.160156 L 452.304688 397.160156 C 485.222656 397.160156 512 370.382812 512 337.464844 L 512 307.707031 C 512 303.507812 508.59375 300.101562 504.394531 300.101562 Z M 291.65625 323.003906 C 291.65625 332.941406 283.570312 341.027344 273.636719 341.027344 L 212.011719 341.027344 C 202.074219 341.027344 193.988281 332.941406 193.988281 323.003906 L 193.988281 315.308594 L 291.65625 315.308594 Z M 36.503906 300.101562 L 36.503906 52.742188 C 36.503906 32.90625 51.949219 16.488281 71.703125 15.277344 L 425.945312 15.207031 L 429.859375 15.207031 C 450.554688 15.207031 467.394531 32.046875 467.394531 52.742188 L 467.394531 300.101562 Z M 36.503906 300.101562"/>
            <path d="M 190.351562 201.933594 L 155.625 179.4375 L 190.300781 156.976562 C 195.285156 153.808594 198.382812 147.5625 198.382812 140.683594 C 198.382812 133.847656 195.535156 127.261719 190.367188 122.140625 C 185.523438 117.34375 179.394531 114.589844 173.554688 114.589844 C 169.78125 114.589844 166.765625 115.457031 164.359375 117.238281 L 100.261719 158.878906 C 100.257812 158.878906 100.253906 158.882812 100.25 158.882812 C 91.917969 164.320312 88.949219 173.066406 88.949219 179.4375 C 88.949219 185.8125 91.917969 194.558594 100.261719 200 L 164.359375 241.636719 C 166.765625 243.417969 169.78125 244.285156 173.554688 244.285156 C 179.394531 244.285156 185.519531 241.535156 190.367188 236.734375 C 195.535156 231.613281 198.382812 225.03125 198.382812 218.191406 C 198.382812 211.316406 195.285156 205.070312 190.351562 201.933594 Z M 173.554688 229.078125 C 173.257812 229.078125 173.046875 229.066406 172.90625 229.054688 C 172.898438 229.050781 172.890625 229.042969 172.882812 229.039062 L 108.558594 187.253906 C 104.28125 184.464844 104.15625 179.945312 104.15625 179.4375 C 104.15625 178.933594 104.28125 174.421875 108.546875 171.628906 L 172.886719 129.835938 C 172.894531 129.832031 172.898438 129.828125 172.90625 129.824219 C 173.050781 129.8125 173.261719 129.796875 173.558594 129.796875 C 176.851562 129.796875 183.175781 134.394531 183.175781 140.683594 C 183.175781 142.738281 182.410156 143.949219 182.089844 144.179688 L 137.507812 173.058594 C 135.34375 174.457031 134.039062 176.859375 134.039062 179.4375 C 134.039062 182.015625 135.34375 184.421875 137.507812 185.820312 L 182.128906 214.722656 C 182.410156 214.929688 183.175781 216.136719 183.175781 218.191406 C 183.175781 224.480469 176.847656 229.078125 173.554688 229.078125 Z M 173.554688 229.078125"/>
            <path d="M 327.566406 67.480469 C 327.566406 54.902344 315.90625 46.453125 305.019531 46.453125 C 297.203125 46.453125 290.652344 50.453125 287.542969 57.0625 L 271.082031 90.878906 C 269.242188 94.65625 270.8125 99.207031 274.589844 101.046875 C 278.363281 102.882812 282.914062 101.3125 284.753906 97.539062 L 301.261719 63.625 C 301.515625 63.089844 302.1875 61.660156 305.019531 61.660156 C 308.011719 61.660156 312.359375 63.929688 312.359375 67.480469 C 312.359375 68.289062 312.203125 68.785156 312.117188 68.957031 L 222.957031 251.585938 C 222.9375 251.625 222.917969 251.664062 222.898438 251.707031 C 222.582031 252.382812 220.757812 253.648438 218.390625 253.648438 C 213.796875 253.648438 211.8125 249.792969 211.8125 247.847656 C 211.820312 247.667969 211.945312 247.078125 212.3125 246.34375 L 275.023438 117.523438 C 276.863281 113.746094 275.292969 109.195312 271.515625 107.355469 C 267.742188 105.519531 263.1875 107.089844 261.351562 110.863281 L 198.671875 239.613281 C 197.339844 242.285156 196.605469 245.199219 196.605469 247.828125 C 196.605469 253.003906 198.785156 258.238281 202.59375 262.191406 C 206.734375 266.488281 212.34375 268.855469 218.394531 268.855469 C 226.308594 268.855469 233.636719 264.582031 236.648438 258.207031 L 325.75 75.695312 C 327.253906 72.691406 327.566406 69.570312 327.566406 67.480469 Z M 327.566406 67.480469"/>
            <path d="M 403.632812 158.878906 L 339.535156 117.238281 C 337.128906 115.457031 334.113281 114.589844 330.339844 114.589844 C 324.5 114.589844 318.371094 117.34375 313.527344 122.140625 C 308.359375 127.261719 305.511719 133.847656 305.511719 140.683594 C 305.511719 147.5625 308.609375 153.808594 313.542969 156.945312 L 348.269531 179.4375 L 313.59375 201.898438 C 308.609375 205.070312 305.511719 211.316406 305.511719 218.191406 C 305.511719 225.03125 308.359375 231.613281 313.527344 236.734375 C 318.371094 241.535156 324.5 244.289062 330.339844 244.289062 C 334.113281 244.289062 337.128906 243.421875 339.535156 241.636719 L 403.628906 200 C 403.632812 200 403.636719 199.996094 403.640625 199.992188 C 411.976562 194.558594 414.945312 185.8125 414.945312 179.4375 C 414.945312 173.066406 411.976562 164.320312 403.632812 158.878906 Z M 395.339844 187.25 L 331.011719 229.039062 C 331.003906 229.042969 331 229.046875 330.992188 229.054688 C 330.847656 229.066406 330.636719 229.078125 330.339844 229.078125 C 327.046875 229.078125 320.722656 224.480469 320.722656 218.191406 C 320.722656 216.136719 321.492188 214.929688 321.8125 214.695312 L 366.390625 185.820312 C 368.554688 184.417969 369.863281 182.015625 369.863281 179.4375 C 369.863281 176.859375 368.554688 174.457031 366.390625 173.054688 L 321.769531 144.152344 C 321.492188 143.945312 320.722656 142.738281 320.722656 140.683594 C 320.722656 134.394531 327.050781 129.796875 330.34375 129.796875 C 330.640625 129.796875 330.851562 129.808594 330.992188 129.820312 C 331 129.824219 331.007812 129.832031 331.011719 129.835938 L 395.339844 171.621094 C 399.617188 174.410156 399.742188 178.929688 399.742188 179.4375 C 399.742188 179.941406 399.617188 184.460938 395.339844 187.25 Z M 395.339844 187.25"/>
        </g>
    </symbol>
    <symbol id="app" viewBox="0 0 512 512">
        <g>
			<path d="M358.4,0H153.6c-32.974,0.038-59.695,26.759-59.733,59.733v392.533c0.038,32.974,26.759,59.695,59.733,59.733h204.8
				c32.974-0.038,59.695-26.759,59.733-59.733V59.733C418.095,26.759,391.374,0.038,358.4,0z M401.067,452.267
				c-0.028,23.553-19.114,42.639-42.667,42.667H153.6c-23.553-0.028-42.639-19.114-42.667-42.667v-8.533h290.133V452.267z
				 M401.067,426.667H110.933V85.333h290.133V426.667z M401.067,68.267H110.933v-8.533c0.028-23.553,19.114-42.639,42.667-42.667
				h204.8c23.553,0.028,42.639,19.114,42.667,42.667V68.267z"/>
			<path d="M264.533,34.133h-51.2c-4.713,0-8.533,3.82-8.533,8.533s3.82,8.533,8.533,8.533h51.2c4.713,0,8.533-3.82,8.533-8.533
				S269.246,34.133,264.533,34.133z"/>
			<path d="M298.667,34.133c-4.713,0-8.533,3.82-8.533,8.533c-0.022,2.27,0.87,4.453,2.475,6.058
				c1.605,1.605,3.788,2.497,6.058,2.475c2.259-0.035,4.421-0.918,6.059-2.475c0.341-0.429,0.683-0.854,1.025-1.279
				c0.321-0.477,0.579-0.994,0.767-1.538c0.247-0.483,0.419-1.002,0.508-1.537c0.103-0.563,0.162-1.133,0.175-1.705
				C307.2,37.954,303.38,34.133,298.667,34.133z"/>
			<path d="M221.867,477.867h68.267c4.713,0,8.533-3.82,8.533-8.533s-3.821-8.533-8.533-8.533h-68.267
				c-4.713,0-8.533,3.82-8.533,8.533S217.154,477.867,221.867,477.867z"/>
			<path d="M139.575,277.046l27.752,9.473c1.251,3.611,2.723,7.142,4.408,10.573L158.8,323.433
				c-3.227,6.569-1.921,14.463,3.25,19.642l6.883,6.875c5.17,5.174,13.061,6.483,19.625,3.254l26.352-12.939
				c3.43,1.685,6.961,3.157,10.571,4.408l9.477,27.74c2.354,6.927,8.858,11.587,16.175,11.588h9.733
				c7.314-0.001,13.817-4.656,16.175-11.579l9.478-27.748c3.611-1.251,7.141-2.723,10.571-4.407l26.352,12.939
				c6.563,3.228,14.453,1.921,19.625-3.25l6.892-6.887c5.165-5.178,6.468-13.066,3.242-19.629l-12.936-26.345
				c1.685-3.431,3.158-6.962,4.409-10.573l27.752-9.473c6.922-2.364,11.574-8.869,11.575-16.183v-9.725
				c-0.001-7.315-4.653-13.819-11.575-16.183l-27.752-9.473c-1.251-3.611-2.723-7.142-4.408-10.573l12.935-26.342
				c3.227-6.569,1.921-14.463-3.25-19.642l-6.883-6.875c-5.17-5.175-13.061-6.483-19.625-3.254l-26.352,12.939
				c-3.43-1.685-6.961-3.157-10.571-4.408l-9.477-27.74c-2.354-6.927-8.858-11.587-16.175-11.588h-9.733
				c-7.314,0.001-13.817,4.656-16.175,11.579l-9.478,27.748c-3.611,1.251-7.141,2.723-10.571,4.407l-26.352-12.939
				c-6.563-3.23-14.454-1.923-19.625,3.25l-6.892,6.888c-5.165,5.178-6.468,13.066-3.242,19.629l12.936,26.345
				c-1.685,3.431-3.158,6.962-4.409,10.573l-27.752,9.473c-6.922,2.364-11.575,8.869-11.575,16.183v9.725
				C128.001,268.177,132.653,274.682,139.575,277.046z M349.174,245.061l17.759,6.076l-0.025,9.758l-17.736,6.054
				C350.098,259.683,350.098,252.328,349.174,245.061z M260.867,366.933l-9.758-0.029l-6.057-17.732
				c7.267,0.925,14.622,0.926,21.889,0.001L260.867,366.933z M330.958,337.888l-16.88-8.289c5.755-4.55,10.961-9.755,15.513-15.509
				l8.293,16.91L330.958,337.888z M331,174.121l6.883,6.917l-8.288,16.88c-4.55-5.754-9.754-10.958-15.507-15.509L331,174.121z
				 M251.133,145.067l9.758,0.029l6.056,17.732c-7.267-0.925-14.622-0.926-21.889-0.001L251.133,145.067z M256,179.2
				c42.415,0,76.8,34.385,76.8,76.8c-0.048,42.396-34.404,76.752-76.8,76.8c-42.415,0-76.8-34.385-76.8-76.8
				S213.585,179.2,256,179.2z M181.042,174.113l16.88,8.289c-5.755,4.55-10.961,9.755-15.513,15.509L174.117,181L181.042,174.113z
				 M182.405,314.083c4.55,5.754,9.754,10.958,15.507,15.509L181,337.879l-6.883-6.917L182.405,314.083z M145.092,251.104
				l17.736-6.054c-0.925,7.267-0.926,14.622-0.002,21.888l-17.759-6.076L145.092,251.104z"/>
			<path d="M190.233,262.034l25.6,25.6c3.332,3.332,8.735,3.332,12.067,0c3.332-3.332,3.332-8.735,0-12.067L208.333,256
				l19.567-19.567c1.601-1.6,2.5-3.77,2.5-6.033c0-2.263-0.899-4.433-2.5-6.033c-1.6-1.601-3.77-2.5-6.033-2.5
				s-4.433,0.899-6.033,2.5l-25.6,25.6c-1.601,1.6-2.5,3.77-2.5,6.033S188.632,260.434,190.233,262.034z"/>
			<path d="M281.849,283.829c0.786,2.958,3.097,5.269,6.055,6.055c2.958,0.786,6.111-0.073,8.262-2.251l25.6-25.6
				c1.601-1.6,2.5-3.77,2.5-6.033s-0.899-4.433-2.5-6.033l-25.6-25.6c-3.341-3.281-8.701-3.256-12.012,0.054
				s-3.335,8.671-0.054,12.012L303.667,256L284.1,275.567C281.922,277.718,281.063,280.871,281.849,283.829z"/>
			<path d="M250.202,306.772c2.893-0.981,5.04-3.434,5.631-6.43l17.067-85.333c0.923-4.62-2.072-9.115-6.692-10.042
				c-4.62-0.923-9.115,2.072-10.042,6.692L239.1,296.992c-0.609,2.993,0.429,6.083,2.721,8.103
				C244.113,307.113,247.31,307.753,250.202,306.772z"/>
        </g>
    </symbol>
    <symbol id="uiux" viewBox="0 0 128 128">
        <g>
            <path d="M114.5,0H13.5A13.515,13.515,0,0,0,0,13.5v101A13.515,13.515,0,0,0,13.5,128h101A13.515,13.515,0,0,0,128,114.5V13.5A13.515,13.515,0,0,0,114.5,0ZM125,114.5A10.512,10.512,0,0,1,114.5,125H13.5A10.512,10.512,0,0,1,3,114.5V30H125ZM125,27H3V13.5A10.512,10.512,0,0,1,13.5,3h101A10.512,10.512,0,0,1,125,13.5Z"/><path d="M15.5,11A4.5,4.5,0,1,0,20,15.5,4.505,4.505,0,0,0,15.5,11Zm0,6A1.5,1.5,0,1,1,17,15.5,1.5,1.5,0,0,1,15.5,17Z"/><path d="M47.5,11A4.5,4.5,0,1,0,52,15.5,4.505,4.505,0,0,0,47.5,11Zm0,6A1.5,1.5,0,1,1,49,15.5,1.5,1.5,0,0,1,47.5,17Z"/><path d="M31.5,11A4.5,4.5,0,1,0,36,15.5,4.505,4.505,0,0,0,31.5,11Zm0,6A1.5,1.5,0,1,1,33,15.5,1.5,1.5,0,0,1,31.5,17Z"/><path d="M111.5,11h-16a4.5,4.5,0,0,0,0,9h16a4.5,4.5,0,0,0,0-9Zm0,6h-16a1.5,1.5,0,0,1,0-3h16a1.5,1.5,0,0,1,0,3Z"/><path d="M74.5,64h41a4.505,4.505,0,0,0,4.5-4.5v-17a4.505,4.505,0,0,0-4.5-4.5h-41A4.505,4.505,0,0,0,70,42.5v17A4.505,4.505,0,0,0,74.5,64ZM73,42.5A1.5,1.5,0,0,1,74.5,41h41a1.5,1.5,0,0,1,1.5,1.5v17a1.5,1.5,0,0,1-1.5,1.5h-41A1.5,1.5,0,0,1,73,59.5Z"/><path d="M13.5,119h40a4.505,4.505,0,0,0,4.5-4.5v-33A4.505,4.505,0,0,0,53.5,77h-40A4.505,4.505,0,0,0,9,81.5v33A4.505,4.505,0,0,0,13.5,119ZM12,81.5A1.5,1.5,0,0,1,13.5,80h40A1.5,1.5,0,0,1,55,81.5v33a1.5,1.5,0,0,1-1.5,1.5h-40a1.5,1.5,0,0,1-1.5-1.5Z"/><path d="M21.166,67.026a10.512,10.512,0,0,0,10.5-10.5v-14a4.5,4.5,0,0,0-9,0v14a1.5,1.5,0,0,1-3,0v-14a4.5,4.5,0,0,0-9,0v14A10.512,10.512,0,0,0,21.166,67.026Zm-7.5-24.5a1.5,1.5,0,0,1,3,0v14a4.5,4.5,0,0,0,9,0v-14a1.5,1.5,0,0,1,3,0v14a7.5,7.5,0,0,1-15,0Z"/><path d="M37.519,66.332a4.529,4.529,0,0,0,6.173-1.543l2.142-3.569,2.142,3.569a4.5,4.5,0,1,0,7.716-4.631l-4.61-7.684,4.61-7.685a4.5,4.5,0,1,0-7.716-4.631l-2.142,3.57-2.142-3.57a4.5,4.5,0,1,0-7.716,4.631l4.61,7.685-4.61,7.684A4.52,4.52,0,0,0,37.519,66.332ZM38.548,61.7l5.074-8.456a1.5,1.5,0,0,0,0-1.543l-5.074-8.456A1.5,1.5,0,0,1,41.12,41.7l3.428,5.713a1.509,1.509,0,0,0,2.572,0L50.548,41.7a1.5,1.5,0,0,1,2.572,1.545L48.046,51.7a1.5,1.5,0,0,0,0,1.543L53.12,61.7a1.508,1.508,0,0,1-.515,2.059,1.532,1.532,0,0,1-2.057-.514L47.12,57.533a1.51,1.51,0,0,0-2.572,0L41.12,63.246a1.527,1.527,0,0,1-2.057.514A1.508,1.508,0,0,1,38.548,61.7Z"/><path d="M71.5,80h47a1.5,1.5,0,0,0,0-3h-47a1.5,1.5,0,0,0,0,3Z"/><path d="M71.5,93h47a1.5,1.5,0,0,0,0-3h-47a1.5,1.5,0,0,0,0,3Z"/><path d="M71.5,106h47a1.5,1.5,0,0,0,0-3h-47a1.5,1.5,0,0,0,0,3Z"/><path d="M71.5,119h47a1.5,1.5,0,0,0,0-3h-47a1.5,1.5,0,0,0,0,3Z"/>
        </g>
    </symbol>
</svg>