<svg display="none" xmlns="http://www.w3.org/2000/svg">
    <symbol id="facebook" viewBox="0 0 20 20">
        <g>
            <path d="M17.0698 0L2.9292 0C1.3139 0 -0.000488281 1.31439 -0.000488281 2.92969L-0.000488281 17.0703C-0.000488281 18.6856 1.3139 20 2.9292 20L8.82764 20L8.82764 12.9297L6.48389 12.9297L6.48389 9.41406L8.82764 9.41406L8.82764 7.03125C8.82764 5.09262 10.4046 3.51563 12.3433 3.51563L15.8979 3.51563L15.8979 7.03125L12.3433 7.03125L12.3433 9.41406L15.8979 9.41406L15.312 12.9297L12.3433 12.9297L12.3433 20L17.0698 20C18.6851 20 19.9995 18.6856 19.9995 17.0703L19.9995 2.92969C19.9995 1.31439 18.6851 0 17.0698 0Z"/>
        </g>
    </symbol>
    <symbol id="github" viewBox="0 0 20 19">
        <g>
            <path d="M10 0C4.475 0 0 4.36167 0 9.74107C0 14.0457 2.865 17.6962 6.8375 18.9832C7.3375 19.0749 7.52083 18.7734 7.52083 18.5148C7.52083 18.2835 7.5125 17.6706 7.50833 16.8585C4.72667 17.4459 4.14 15.5517 4.14 15.5517C3.685 14.4274 3.0275 14.1267 3.0275 14.1267C2.12167 13.5228 3.0975 13.5352 3.0975 13.5352C4.10167 13.603 4.62917 14.5389 4.62917 14.5389C5.52083 16.0283 6.97 15.5979 7.54167 15.3493C7.63167 14.719 7.88917 14.2903 8.175 14.0466C5.95417 13.8029 3.62 12.9652 3.62 9.23304C3.62 8.16988 4.0075 7.30085 4.64917 6.61934C4.53667 6.37317 4.19917 5.3827 4.73667 4.04116C4.73667 4.04116 5.57417 3.78012 7.48667 5.03988C8.28667 4.82345 9.13667 4.71606 9.98667 4.7111C10.8367 4.71606 11.6867 4.82345 12.4867 5.03988C14.3867 3.78012 15.2242 4.04116 15.2242 4.04116C15.7617 5.3827 15.4242 6.37317 15.3242 6.61934C15.9617 7.30085 16.3492 8.16988 16.3492 9.23304C16.3492 12.9752 14.0117 13.7987 11.7867 14.0383C12.1367 14.3307 12.4617 14.928 12.4617 15.8408C12.4617 17.1444 12.4492 18.1918 12.4492 18.5082C12.4492 18.7635 12.6242 19.0683 13.1367 18.9708C17.1375 17.692 20 14.0391 20 9.74107C20 4.36167 15.5225 0 10 0Z"/>
        </g>
    </symbol>
    <symbol id="instagram" viewBox="0 0 20 20">
        <g>
            <path d="M13.7495 0L6.24951 0C2.79826 0 -0.000488281 2.79875 -0.000488281 6.25L-0.000488281 13.75C-0.000488281 17.2013 2.79826 20 6.24951 20L13.7495 20C17.2008 20 19.9995 17.2013 19.9995 13.75L19.9995 6.25C19.9995 2.79875 17.2008 0 13.7495 0ZM18.1245 13.75C18.1245 16.1625 16.162 18.125 13.7495 18.125L6.24951 18.125C3.83701 18.125 1.87451 16.1625 1.87451 13.75L1.87451 6.25C1.87451 3.8375 3.83701 1.875 6.24951 1.875L13.7495 1.875C16.162 1.875 18.1245 3.8375 18.1245 6.25L18.1245 13.75Z"/>
            <path d="M9.99951 5C7.23826 5 4.99951 7.23875 4.99951 10C4.99951 12.7613 7.23826 15 9.99951 15C12.7608 15 14.9995 12.7613 14.9995 10C14.9995 7.23875 12.7608 5 9.99951 5ZM9.99951 13.125C8.27701 13.125 6.87451 11.7225 6.87451 10C6.87451 8.27625 8.27701 6.875 9.99951 6.875C11.722 6.875 13.1245 8.27625 13.1245 10C13.1245 11.7225 11.722 13.125 9.99951 13.125Z"/>
            <path d="M15.3745 5.29123C15.7425 5.29123 16.0408 4.99295 16.0408 4.62499C16.0408 4.25703 15.7425 3.95874 15.3745 3.95874C15.0065 3.95874 14.7083 4.25703 14.7083 4.62499C14.7083 4.99295 15.0065 5.29123 15.3745 5.29123Z"/>
        </g>
    </symbol>
    <symbol id="telegram" viewBox="0 0 30 30">
        <g>
            <path d="M15 30C23.2863 30 30 23.2863 30 15C30 6.71375 23.2863 0 15 0C6.71375 0 0 6.71375 0 15C0 23.2863 6.71375 30 15 30ZM6.86375 14.675L21.3263 9.09875C21.9975 8.85625 22.5837 9.2625 22.3662 10.2775L22.3675 10.2762L19.905 21.8775C19.7225 22.7 19.2337 22.9 18.55 22.5125L14.8 19.7487L12.9912 21.4913C12.7912 21.6913 12.6225 21.86 12.235 21.86L12.5013 18.0438L19.4513 11.765C19.7537 11.4987 19.3837 11.3488 18.985 11.6138L10.3963 17.0212L6.69375 15.8663C5.89 15.6112 5.8725 15.0625 6.86375 14.675Z"/>
        </g>
    </symbol>
    <symbol id="close" viewBox="0 0 29 30">
        <g>
            <path d="M17.1568 14.5231L28.4489 3.23075C29.1837 2.49623 29.1837 1.30861 28.4489 0.574085C27.7144 -0.160437 26.5267 -0.160437 25.7922 0.574085L14.4998 11.8665L3.20781 0.574085C2.47295 -0.160437 1.28567 -0.160437 0.551149 0.574085C-0.183716 1.30861 -0.183716 2.49623 0.551149 3.23075L11.8432 14.5231L0.551149 25.8155C-0.183716 26.55 -0.183716 27.7376 0.551149 28.4721C0.917206 28.8385 1.39852 29.0226 1.87948 29.0226C2.36045 29.0226 2.84141 28.8385 3.20781 28.4721L14.4998 17.1798L25.7922 28.4721C26.1586 28.8385 26.6396 29.0226 27.1205 29.0226C27.6015 29.0226 28.0825 28.8385 28.4489 28.4721C29.1837 27.7376 29.1837 26.55 28.4489 25.8155L17.1568 14.5231Z"/>
        </g>
    </symbol>
    <symbol id="web" viewBox="0 -57 512.00002 512">
        <g>
            <path d="M 504.394531 300.101562 L 482.601562 300.101562 L 482.601562 52.742188 C 482.601562 23.660156 458.941406 0 429.859375 0 L 71.480469 0.0703125 C 71.339844 0.0703125 71.199219 0.0742188 71.054688 0.0820312 C 43.152344 1.644531 21.296875 24.773438 21.296875 52.742188 L 21.296875 300.101562 L 7.605469 300.101562 C 3.40625 300.101562 0 303.507812 0 307.707031 L 0 337.464844 C 0 370.382812 26.777344 397.160156 59.695312 397.160156 L 379.695312 397.160156 C 383.898438 397.160156 387.300781 393.757812 387.300781 389.558594 C 387.300781 385.359375 383.898438 381.953125 379.695312 381.953125 L 59.695312 381.953125 C 35.164062 381.953125 15.207031 361.996094 15.207031 337.464844 L 15.207031 315.3125 L 178.78125 315.3125 L 178.78125 323.003906 C 178.78125 341.328125 193.6875 356.234375 212.011719 356.234375 L 273.632812 356.234375 C 291.957031 356.234375 306.863281 341.328125 306.863281 323.003906 L 306.863281 315.3125 L 496.792969 315.3125 L 496.792969 337.464844 C 496.792969 361.996094 476.835938 381.953125 452.304688 381.953125 L 405.046875 381.953125 C 400.847656 381.953125 397.441406 385.359375 397.441406 389.558594 C 397.441406 393.757812 400.847656 397.160156 405.046875 397.160156 L 452.304688 397.160156 C 485.222656 397.160156 512 370.382812 512 337.464844 L 512 307.707031 C 512 303.507812 508.59375 300.101562 504.394531 300.101562 Z M 291.65625 323.003906 C 291.65625 332.941406 283.570312 341.027344 273.636719 341.027344 L 212.011719 341.027344 C 202.074219 341.027344 193.988281 332.941406 193.988281 323.003906 L 193.988281 315.308594 L 291.65625 315.308594 Z M 36.503906 300.101562 L 36.503906 52.742188 C 36.503906 32.90625 51.949219 16.488281 71.703125 15.277344 L 425.945312 15.207031 L 429.859375 15.207031 C 450.554688 15.207031 467.394531 32.046875 467.394531 52.742188 L 467.394531 300.101562 Z M 36.503906 300.101562"/>
            <path d="M 190.351562 201.933594 L 155.625 179.4375 L 190.300781 156.976562 C 195.285156 153.808594 198.382812 147.5625 198.382812 140.683594 C 198.382812 133.847656 195.535156 127.261719 190.367188 122.140625 C 185.523438 117.34375 179.394531 114.589844 173.554688 114.589844 C 169.78125 114.589844 166.765625 115.457031 164.359375 117.238281 L 100.261719 158.878906 C 100.257812 158.878906 100.253906 158.882812 100.25 158.882812 C 91.917969 164.320312 88.949219 173.066406 88.949219 179.4375 C 88.949219 185.8125 91.917969 194.558594 100.261719 200 L 164.359375 241.636719 C 166.765625 243.417969 169.78125 244.285156 173.554688 244.285156 C 179.394531 244.285156 185.519531 241.535156 190.367188 236.734375 C 195.535156 231.613281 198.382812 225.03125 198.382812 218.191406 C 198.382812 211.316406 195.285156 205.070312 190.351562 201.933594 Z M 173.554688 229.078125 C 173.257812 229.078125 173.046875 229.066406 172.90625 229.054688 C 172.898438 229.050781 172.890625 229.042969 172.882812 229.039062 L 108.558594 187.253906 C 104.28125 184.464844 104.15625 179.945312 104.15625 179.4375 C 104.15625 178.933594 104.28125 174.421875 108.546875 171.628906 L 172.886719 129.835938 C 172.894531 129.832031 172.898438 129.828125 172.90625 129.824219 C 173.050781 129.8125 173.261719 129.796875 173.558594 129.796875 C 176.851562 129.796875 183.175781 134.394531 183.175781 140.683594 C 183.175781 142.738281 182.410156 143.949219 182.089844 144.179688 L 137.507812 173.058594 C 135.34375 174.457031 134.039062 176.859375 134.039062 179.4375 C 134.039062 182.015625 135.34375 184.421875 137.507812 185.820312 L 182.128906 214.722656 C 182.410156 214.929688 183.175781 216.136719 183.175781 218.191406 C 183.175781 224.480469 176.847656 229.078125 173.554688 229.078125 Z M 173.554688 229.078125"/>
            <path d="M 327.566406 67.480469 C 327.566406 54.902344 315.90625 46.453125 305.019531 46.453125 C 297.203125 46.453125 290.652344 50.453125 287.542969 57.0625 L 271.082031 90.878906 C 269.242188 94.65625 270.8125 99.207031 274.589844 101.046875 C 278.363281 102.882812 282.914062 101.3125 284.753906 97.539062 L 301.261719 63.625 C 301.515625 63.089844 302.1875 61.660156 305.019531 61.660156 C 308.011719 61.660156 312.359375 63.929688 312.359375 67.480469 C 312.359375 68.289062 312.203125 68.785156 312.117188 68.957031 L 222.957031 251.585938 C 222.9375 251.625 222.917969 251.664062 222.898438 251.707031 C 222.582031 252.382812 220.757812 253.648438 218.390625 253.648438 C 213.796875 253.648438 211.8125 249.792969 211.8125 247.847656 C 211.820312 247.667969 211.945312 247.078125 212.3125 246.34375 L 275.023438 117.523438 C 276.863281 113.746094 275.292969 109.195312 271.515625 107.355469 C 267.742188 105.519531 263.1875 107.089844 261.351562 110.863281 L 198.671875 239.613281 C 197.339844 242.285156 196.605469 245.199219 196.605469 247.828125 C 196.605469 253.003906 198.785156 258.238281 202.59375 262.191406 C 206.734375 266.488281 212.34375 268.855469 218.394531 268.855469 C 226.308594 268.855469 233.636719 264.582031 236.648438 258.207031 L 325.75 75.695312 C 327.253906 72.691406 327.566406 69.570312 327.566406 67.480469 Z M 327.566406 67.480469"/>
            <path d="M 403.632812 158.878906 L 339.535156 117.238281 C 337.128906 115.457031 334.113281 114.589844 330.339844 114.589844 C 324.5 114.589844 318.371094 117.34375 313.527344 122.140625 C 308.359375 127.261719 305.511719 133.847656 305.511719 140.683594 C 305.511719 147.5625 308.609375 153.808594 313.542969 156.945312 L 348.269531 179.4375 L 313.59375 201.898438 C 308.609375 205.070312 305.511719 211.316406 305.511719 218.191406 C 305.511719 225.03125 308.359375 231.613281 313.527344 236.734375 C 318.371094 241.535156 324.5 244.289062 330.339844 244.289062 C 334.113281 244.289062 337.128906 243.421875 339.535156 241.636719 L 403.628906 200 C 403.632812 200 403.636719 199.996094 403.640625 199.992188 C 411.976562 194.558594 414.945312 185.8125 414.945312 179.4375 C 414.945312 173.066406 411.976562 164.320312 403.632812 158.878906 Z M 395.339844 187.25 L 331.011719 229.039062 C 331.003906 229.042969 331 229.046875 330.992188 229.054688 C 330.847656 229.066406 330.636719 229.078125 330.339844 229.078125 C 327.046875 229.078125 320.722656 224.480469 320.722656 218.191406 C 320.722656 216.136719 321.492188 214.929688 321.8125 214.695312 L 366.390625 185.820312 C 368.554688 184.417969 369.863281 182.015625 369.863281 179.4375 C 369.863281 176.859375 368.554688 174.457031 366.390625 173.054688 L 321.769531 144.152344 C 321.492188 143.945312 320.722656 142.738281 320.722656 140.683594 C 320.722656 134.394531 327.050781 129.796875 330.34375 129.796875 C 330.640625 129.796875 330.851562 129.808594 330.992188 129.820312 C 331 129.824219 331.007812 129.832031 331.011719 129.835938 L 395.339844 171.621094 C 399.617188 174.410156 399.742188 178.929688 399.742188 179.4375 C 399.742188 179.941406 399.617188 184.460938 395.339844 187.25 Z M 395.339844 187.25"/>
        </g>
    </symbol>
    <symbol id="app" viewBox="0 0 512 512">
        <g>
			<path d="M358.4,0H153.6c-32.974,0.038-59.695,26.759-59.733,59.733v392.533c0.038,32.974,26.759,59.695,59.733,59.733h204.8
				c32.974-0.038,59.695-26.759,59.733-59.733V59.733C418.095,26.759,391.374,0.038,358.4,0z M401.067,452.267
				c-0.028,23.553-19.114,42.639-42.667,42.667H153.6c-23.553-0.028-42.639-19.114-42.667-42.667v-8.533h290.133V452.267z
				 M401.067,426.667H110.933V85.333h290.133V426.667z M401.067,68.267H110.933v-8.533c0.028-23.553,19.114-42.639,42.667-42.667
				h204.8c23.553,0.028,42.639,19.114,42.667,42.667V68.267z"/>
			<path d="M264.533,34.133h-51.2c-4.713,0-8.533,3.82-8.533,8.533s3.82,8.533,8.533,8.533h51.2c4.713,0,8.533-3.82,8.533-8.533
				S269.246,34.133,264.533,34.133z"/>
			<path d="M298.667,34.133c-4.713,0-8.533,3.82-8.533,8.533c-0.022,2.27,0.87,4.453,2.475,6.058
				c1.605,1.605,3.788,2.497,6.058,2.475c2.259-0.035,4.421-0.918,6.059-2.475c0.341-0.429,0.683-0.854,1.025-1.279
				c0.321-0.477,0.579-0.994,0.767-1.538c0.247-0.483,0.419-1.002,0.508-1.537c0.103-0.563,0.162-1.133,0.175-1.705
				C307.2,37.954,303.38,34.133,298.667,34.133z"/>
			<path d="M221.867,477.867h68.267c4.713,0,8.533-3.82,8.533-8.533s-3.821-8.533-8.533-8.533h-68.267
				c-4.713,0-8.533,3.82-8.533,8.533S217.154,477.867,221.867,477.867z"/>
			<path d="M139.575,277.046l27.752,9.473c1.251,3.611,2.723,7.142,4.408,10.573L158.8,323.433
				c-3.227,6.569-1.921,14.463,3.25,19.642l6.883,6.875c5.17,5.174,13.061,6.483,19.625,3.254l26.352-12.939
				c3.43,1.685,6.961,3.157,10.571,4.408l9.477,27.74c2.354,6.927,8.858,11.587,16.175,11.588h9.733
				c7.314-0.001,13.817-4.656,16.175-11.579l9.478-27.748c3.611-1.251,7.141-2.723,10.571-4.407l26.352,12.939
				c6.563,3.228,14.453,1.921,19.625-3.25l6.892-6.887c5.165-5.178,6.468-13.066,3.242-19.629l-12.936-26.345
				c1.685-3.431,3.158-6.962,4.409-10.573l27.752-9.473c6.922-2.364,11.574-8.869,11.575-16.183v-9.725
				c-0.001-7.315-4.653-13.819-11.575-16.183l-27.752-9.473c-1.251-3.611-2.723-7.142-4.408-10.573l12.935-26.342
				c3.227-6.569,1.921-14.463-3.25-19.642l-6.883-6.875c-5.17-5.175-13.061-6.483-19.625-3.254l-26.352,12.939
				c-3.43-1.685-6.961-3.157-10.571-4.408l-9.477-27.74c-2.354-6.927-8.858-11.587-16.175-11.588h-9.733
				c-7.314,0.001-13.817,4.656-16.175,11.579l-9.478,27.748c-3.611,1.251-7.141,2.723-10.571,4.407l-26.352-12.939
				c-6.563-3.23-14.454-1.923-19.625,3.25l-6.892,6.888c-5.165,5.178-6.468,13.066-3.242,19.629l12.936,26.345
				c-1.685,3.431-3.158,6.962-4.409,10.573l-27.752,9.473c-6.922,2.364-11.575,8.869-11.575,16.183v9.725
				C128.001,268.177,132.653,274.682,139.575,277.046z M349.174,245.061l17.759,6.076l-0.025,9.758l-17.736,6.054
				C350.098,259.683,350.098,252.328,349.174,245.061z M260.867,366.933l-9.758-0.029l-6.057-17.732
				c7.267,0.925,14.622,0.926,21.889,0.001L260.867,366.933z M330.958,337.888l-16.88-8.289c5.755-4.55,10.961-9.755,15.513-15.509
				l8.293,16.91L330.958,337.888z M331,174.121l6.883,6.917l-8.288,16.88c-4.55-5.754-9.754-10.958-15.507-15.509L331,174.121z
				 M251.133,145.067l9.758,0.029l6.056,17.732c-7.267-0.925-14.622-0.926-21.889-0.001L251.133,145.067z M256,179.2
				c42.415,0,76.8,34.385,76.8,76.8c-0.048,42.396-34.404,76.752-76.8,76.8c-42.415,0-76.8-34.385-76.8-76.8
				S213.585,179.2,256,179.2z M181.042,174.113l16.88,8.289c-5.755,4.55-10.961,9.755-15.513,15.509L174.117,181L181.042,174.113z
				 M182.405,314.083c4.55,5.754,9.754,10.958,15.507,15.509L181,337.879l-6.883-6.917L182.405,314.083z M145.092,251.104
				l17.736-6.054c-0.925,7.267-0.926,14.622-0.002,21.888l-17.759-6.076L145.092,251.104z"/>
			<path d="M190.233,262.034l25.6,25.6c3.332,3.332,8.735,3.332,12.067,0c3.332-3.332,3.332-8.735,0-12.067L208.333,256
				l19.567-19.567c1.601-1.6,2.5-3.77,2.5-6.033c0-2.263-0.899-4.433-2.5-6.033c-1.6-1.601-3.77-2.5-6.033-2.5
				s-4.433,0.899-6.033,2.5l-25.6,25.6c-1.601,1.6-2.5,3.77-2.5,6.033S188.632,260.434,190.233,262.034z"/>
			<path d="M281.849,283.829c0.786,2.958,3.097,5.269,6.055,6.055c2.958,0.786,6.111-0.073,8.262-2.251l25.6-25.6
				c1.601-1.6,2.5-3.77,2.5-6.033s-0.899-4.433-2.5-6.033l-25.6-25.6c-3.341-3.281-8.701-3.256-12.012,0.054
				s-3.335,8.671-0.054,12.012L303.667,256L284.1,275.567C281.922,277.718,281.063,280.871,281.849,283.829z"/>
			<path d="M250.202,306.772c2.893-0.981,5.04-3.434,5.631-6.43l17.067-85.333c0.923-4.62-2.072-9.115-6.692-10.042
				c-4.62-0.923-9.115,2.072-10.042,6.692L239.1,296.992c-0.609,2.993,0.429,6.083,2.721,8.103
				C244.113,307.113,247.31,307.753,250.202,306.772z"/>
        </g>
    </symbol>
    <symbol id="uiux" viewBox="0 0 128 128">
        <g>
            <path d="M114.5,0H13.5A13.515,13.515,0,0,0,0,13.5v101A13.515,13.515,0,0,0,13.5,128h101A13.515,13.515,0,0,0,128,114.5V13.5A13.515,13.515,0,0,0,114.5,0ZM125,114.5A10.512,10.512,0,0,1,114.5,125H13.5A10.512,10.512,0,0,1,3,114.5V30H125ZM125,27H3V13.5A10.512,10.512,0,0,1,13.5,3h101A10.512,10.512,0,0,1,125,13.5Z"/><path d="M15.5,11A4.5,4.5,0,1,0,20,15.5,4.505,4.505,0,0,0,15.5,11Zm0,6A1.5,1.5,0,1,1,17,15.5,1.5,1.5,0,0,1,15.5,17Z"/><path d="M47.5,11A4.5,4.5,0,1,0,52,15.5,4.505,4.505,0,0,0,47.5,11Zm0,6A1.5,1.5,0,1,1,49,15.5,1.5,1.5,0,0,1,47.5,17Z"/><path d="M31.5,11A4.5,4.5,0,1,0,36,15.5,4.505,4.505,0,0,0,31.5,11Zm0,6A1.5,1.5,0,1,1,33,15.5,1.5,1.5,0,0,1,31.5,17Z"/><path d="M111.5,11h-16a4.5,4.5,0,0,0,0,9h16a4.5,4.5,0,0,0,0-9Zm0,6h-16a1.5,1.5,0,0,1,0-3h16a1.5,1.5,0,0,1,0,3Z"/><path d="M74.5,64h41a4.505,4.505,0,0,0,4.5-4.5v-17a4.505,4.505,0,0,0-4.5-4.5h-41A4.505,4.505,0,0,0,70,42.5v17A4.505,4.505,0,0,0,74.5,64ZM73,42.5A1.5,1.5,0,0,1,74.5,41h41a1.5,1.5,0,0,1,1.5,1.5v17a1.5,1.5,0,0,1-1.5,1.5h-41A1.5,1.5,0,0,1,73,59.5Z"/><path d="M13.5,119h40a4.505,4.505,0,0,0,4.5-4.5v-33A4.505,4.505,0,0,0,53.5,77h-40A4.505,4.505,0,0,0,9,81.5v33A4.505,4.505,0,0,0,13.5,119ZM12,81.5A1.5,1.5,0,0,1,13.5,80h40A1.5,1.5,0,0,1,55,81.5v33a1.5,1.5,0,0,1-1.5,1.5h-40a1.5,1.5,0,0,1-1.5-1.5Z"/><path d="M21.166,67.026a10.512,10.512,0,0,0,10.5-10.5v-14a4.5,4.5,0,0,0-9,0v14a1.5,1.5,0,0,1-3,0v-14a4.5,4.5,0,0,0-9,0v14A10.512,10.512,0,0,0,21.166,67.026Zm-7.5-24.5a1.5,1.5,0,0,1,3,0v14a4.5,4.5,0,0,0,9,0v-14a1.5,1.5,0,0,1,3,0v14a7.5,7.5,0,0,1-15,0Z"/><path d="M37.519,66.332a4.529,4.529,0,0,0,6.173-1.543l2.142-3.569,2.142,3.569a4.5,4.5,0,1,0,7.716-4.631l-4.61-7.684,4.61-7.685a4.5,4.5,0,1,0-7.716-4.631l-2.142,3.57-2.142-3.57a4.5,4.5,0,1,0-7.716,4.631l4.61,7.685-4.61,7.684A4.52,4.52,0,0,0,37.519,66.332ZM38.548,61.7l5.074-8.456a1.5,1.5,0,0,0,0-1.543l-5.074-8.456A1.5,1.5,0,0,1,41.12,41.7l3.428,5.713a1.509,1.509,0,0,0,2.572,0L50.548,41.7a1.5,1.5,0,0,1,2.572,1.545L48.046,51.7a1.5,1.5,0,0,0,0,1.543L53.12,61.7a1.508,1.508,0,0,1-.515,2.059,1.532,1.532,0,0,1-2.057-.514L47.12,57.533a1.51,1.51,0,0,0-2.572,0L41.12,63.246a1.527,1.527,0,0,1-2.057.514A1.508,1.508,0,0,1,38.548,61.7Z"/><path d="M71.5,80h47a1.5,1.5,0,0,0,0-3h-47a1.5,1.5,0,0,0,0,3Z"/><path d="M71.5,93h47a1.5,1.5,0,0,0,0-3h-47a1.5,1.5,0,0,0,0,3Z"/><path d="M71.5,106h47a1.5,1.5,0,0,0,0-3h-47a1.5,1.5,0,0,0,0,3Z"/><path d="M71.5,119h47a1.5,1.5,0,0,0,0-3h-47a1.5,1.5,0,0,0,0,3Z"/>
        </g>
    </symbol>
    <symbol id="study" viewBox="0 0 21 25">
        <g>
            <path d="M17.7169 16.333L16.2497 15.9022L13.0575 13.8172V13.3394C13.9817 12.6423 14.6164 11.5767 14.7343 10.3553C15.1978 10.2807 15.553 9.87789 15.553 9.39371V8.07999C15.553 8.07491 15.5524 8.06993 15.5522 8.06486V6.4007C15.7369 6.26847 15.854 6.05309 15.854 5.81149V4.28854L18.057 3.91329C18.4191 3.85162 18.6794 3.56407 18.705 3.19772C18.7305 2.83136 18.5126 2.51046 18.1626 2.39918L10.736 0.0369751C10.5811 -0.0123413 10.4174 -0.0122925 10.2625 0.0369263L2.83579 2.39918C2.48583 2.51046 2.26787 2.83136 2.2934 3.19767C2.30961 3.43043 2.42084 3.63112 2.59252 3.76256V5.75411H2.57436C2.15615 5.75411 1.81591 6.09435 1.81591 6.51256V7.50113L1.32631 10.3748C1.24169 10.8718 1.62451 11.3267 2.12988 11.3267H3.78754C4.29179 11.3267 4.67592 10.8729 4.59111 10.3747L4.10151 7.50113V6.51256C4.10151 6.09435 3.76127 5.75411 3.34306 5.75411H3.32495V3.97858L5.14594 4.28873V5.81149C5.14594 6.05206 5.26259 6.2671 5.44638 6.39952L5.44707 8.08014V9.39371C5.44707 9.87794 5.80219 10.2807 6.26572 10.3553C6.38364 11.576 7.01762 12.6411 7.94096 13.3383V13.8183L4.74946 15.9029L3.28339 16.3332C1.71459 16.7937 0.606879 18.2339 0.606879 19.9082V20.9996C0.606879 21.2018 0.770795 21.3658 0.97309 21.3658C1.17538 21.3658 1.3393 21.2019 1.3393 20.9996V19.9082C1.3393 18.5886 2.22353 17.4075 3.48969 17.0359L4.85571 16.635L10.313 19.8778C10.4238 19.9436 10.5704 19.9471 10.6872 19.8778L16.1448 16.6348L17.5107 17.0358C18.7767 17.4074 19.6609 18.5885 19.6609 19.9079V23.4449C19.6609 23.8986 19.2918 24.2677 18.8381 24.2677H17.224V22.6892C17.224 22.4869 17.0601 22.323 16.8578 22.323C16.6556 22.323 16.4916 22.4869 16.4916 22.6892V24.2677H4.50683V22.6892C4.50683 22.4869 4.34291 22.323 4.14062 22.323C3.93832 22.323 3.77441 22.4869 3.77441 22.6892V24.2677H2.16196C1.70829 24.2677 1.3392 23.8986 1.3392 23.4449V22.7114C1.3392 22.5092 1.17529 22.3452 0.972992 22.3452C0.770697 22.3452 0.606781 22.5091 0.606781 22.7114V23.4449C0.606781 24.3024 1.30439 25 2.16191 25H18.838C19.6956 25 20.3932 24.3024 20.3932 23.4449V19.9079C20.3932 18.2731 19.3232 16.8046 17.7169 16.333ZM3.78749 10.5943H2.12988C2.07866 10.5943 2.03959 10.5485 2.04828 10.4977L2.49116 7.8983H3.42621L3.86909 10.4977C3.87773 10.5484 3.83896 10.5943 3.78749 10.5943ZM3.36909 6.51256V7.16593H2.54824V6.51256C2.54824 6.49816 2.55991 6.48649 2.57431 6.48649H3.34296C3.35742 6.48644 3.36909 6.49816 3.36909 6.51256ZM9.19028 18.2213L9.33603 18.4453L5.59731 16.2237L7.97041 14.6737C8.07802 15.9364 8.49423 17.1515 9.19028 18.2213ZM9.18774 16.6404C10.0497 16.7629 10.9498 16.763 11.8123 16.6404C11.6456 17.0505 11.4402 17.4462 11.1958 17.8219L10.5 18.8914L9.80415 17.8219C9.55976 17.4462 9.35439 17.0505 9.18774 16.6404ZM11.8097 18.2213C12.5058 17.1515 12.922 15.9364 13.0295 14.6737L15.4026 16.2237L11.664 18.4453L11.8097 18.2213ZM13.9519 6.53707H14.8198V7.71373H14.389C14.1479 7.71373 13.9518 7.51764 13.9518 7.27657V6.53707H13.9519ZM3.05776 3.09713L10.4846 0.734827C10.4941 0.731799 10.5043 0.73175 10.514 0.734876L17.9408 3.09713C17.9561 3.10201 17.9771 3.10865 17.9745 3.14679C17.9718 3.18488 17.95 3.18854 17.9341 3.19127L15.4787 3.60948L14.5568 3.49547C14.3562 3.47062 14.1733 3.61329 14.1484 3.81398C14.1236 4.01471 14.2663 4.19752 14.4669 4.22233L15.1217 4.30333V5.8047L5.87832 5.80436V4.30328L9.66772 3.83439C10.2197 3.76617 10.7792 3.76617 11.3308 3.83439L12.765 4.01178C12.9657 4.03663 13.1486 3.89401 13.1734 3.69332C13.1983 3.49259 13.0557 3.30978 12.855 3.28492L11.4207 3.10753C10.8096 3.0319 10.1894 3.0319 9.57783 3.10753L5.5205 3.60958L3.0643 3.19127C3.04838 3.18854 3.02665 3.18488 3.02397 3.14679C3.02133 3.10865 3.04238 3.10197 3.05776 3.09713ZM6.17924 7.71373L6.17875 6.53707H7.04814V7.27662C7.04814 7.51764 6.85205 7.71378 6.61093 7.71378H6.17924V7.71373ZM6.98525 10.1671C6.9664 9.86886 6.71855 9.63527 6.42104 9.63527C6.28779 9.63527 6.17939 9.52687 6.17939 9.39366V8.44615H6.61093C7.25581 8.44615 7.78051 7.9215 7.78051 7.27662V6.53707H13.2194V7.27662C13.2194 7.9215 13.7441 8.44615 14.389 8.44615H14.8206V9.39366C14.8206 9.52687 14.7122 9.63527 14.5789 9.63527C14.2814 9.63527 14.0335 9.86886 14.0147 10.1671C13.898 12.0162 12.3542 13.4647 10.4999 13.4647C8.6457 13.4647 7.1019 12.0162 6.98525 10.1671ZM10.5 14.197C11.1513 14.197 11.7704 14.0481 12.3251 13.7833V14.0154C12.3251 14.6415 12.2406 15.2591 12.078 15.8548C11.0828 16.0446 9.95761 16.0523 8.92202 15.8548C8.75937 15.2592 8.6749 14.6416 8.6749 14.0154C8.6749 14.0076 8.67382 14.0001 8.67334 13.9924C8.67324 13.9909 8.67338 13.9894 8.67329 13.9879V13.7826C9.22841 14.0478 9.84804 14.197 10.5 14.197Z"/>
        </g>
    </symbol>
    <symbol id="udemy" viewBox="0 0 498.752 498.752">
        <g>
            <path d="M251.504,396.24c-20.832,3.792-37.536,18.736-43.624,39.008l-18.632,62.128h309.504l-18.632-62.128
			c-6.088-20.272-22.8-35.216-43.624-39L384,386.696v-4.144c19.632-11.4,34-30.848,38.488-53.84
			C437.032,325.704,448,312.8,448,297.376V218.36c0-22.328-14.624-41.8-35.832-48.136l-4-4C396.744,154.8,383,146.56,368,141.88
			V57.376c0-13.232-10.768-24-24-24H229.2c-6.608-18.616-24.344-32-45.2-32s-38.592,13.384-45.2,32H24c-13.232,0-24,10.768-24,24
			v240c0,13.232,10.768,24,24,24h96v32h-16v16h160v-16h-16v-32h3.056c4.072,3.56,8.968,6.2,14.456,7.336
			c4.488,22.992,18.864,42.44,38.488,53.84v4.144L251.504,396.24z M424,311.152v-27.544c4.76,2.776,8,7.88,8,13.776
			S428.76,308.376,424,311.152z M232,73.376v-24h112c4.416,0,8,3.592,8,8V138.4c-4.44-0.608-8.928-1.024-13.496-1.024
			c-24.856,0-47.528,9.328-64.88,24.568l-4.376-15.32c-4.216-14.768-16.736-25.944-31.888-28.472L216,114.6v-5.632
			C226.216,99.84,232,87.08,232,73.376z M232,353.376h-96v-32h96V353.376z M240,235.88v21.496h-16v16h16v24
			c0,2.776,0.464,5.424,1.136,8H24c-4.416,0-8-3.584-8-8v-24h192v-16H16v-200c0-4.408,3.584-8,8-8h112v24
			c0,13.704,5.784,26.464,16,35.592v5.632l-21.36,3.56c-15.16,2.52-27.672,13.696-31.888,28.464l-13.36,46.752h164.392
			C243.576,206.264,240,220.648,240,235.88z M106.608,177.368l7.528-26.352c2.52-8.856,10.04-15.56,19.128-17.08L168,128.152
			v-26.936l-3.176-2.4C156.672,92.656,152,83.384,152,73.376v-24c0-17.648,14.352-32,32-32s32,14.352,32,32v24
			c0,10.008-4.672,19.28-12.824,25.44l-3.176,2.4v26.936l34.736,5.792c9.088,1.512,16.6,8.216,19.128,17.08l7,24.456
			c-0.488,0.624-0.944,1.256-1.416,1.888H106.608z M264,311.144c-4.76-2.768-8-7.872-8-13.768s3.24-11,8-13.776V311.144z
			 M264,257.376v9.136c-2.848,0.736-5.52,1.864-8,3.312V235.88c0-45.496,37.016-82.504,82.504-82.504
			c22.048,0,42.768,8.584,58.344,24.168l7.056,7.056l2.16,0.536C421.336,188.96,432,202.616,432,218.36v51.464
			c-2.48-1.448-5.152-2.576-8-3.312v-9.136h-25.376c-21.68,0-42.392-10.352-55.4-27.688l-6.352-8.496l-15.904,15.904
			c-13.08,13.08-30.472,20.28-48.968,20.28H264z M280,313.376v-40.368c19.752-1.832,38.088-10.408,52.28-24.608l3.112-3.112
			c16.056,17.704,39.16,28.08,63.232,28.08H408v40c0,35.288-28.712,64-64,64C308.712,377.368,280,348.664,280,313.376z
			 M320.672,389.888c7.392,2.256,15.216,3.488,23.328,3.488s15.936-1.232,23.328-3.488L344,407.376L320.672,389.888z
			 M331.824,418.24l-16.32,16.32l-10.592-31.768l5.088-0.92L331.824,418.24z M378.008,401.88l5.088,0.92l-10.592,31.768
			l-16.32-16.32L378.008,401.88z M308.512,464.192L344,428.688l35.504,35.504L399,405.696l34.64,6.296
			c14.864,2.696,26.808,13.376,31.152,27.856l12.456,41.528H210.752l12.464-41.528c4.344-14.48,16.28-25.16,31.16-27.856
			l34.64-6.296L308.512,464.192z"/>
        </g>
    </symbol>
    <symbol id="developer" viewBox="0 0 25 25">
        <g>
            <path d="M22.5 3.75H11.25V4.58333H22.5V3.75Z"/>
            <path d="M18.3333 5.41663H11.25V6.24996H18.3333V5.41663Z"/>
            <path d="M18.3333 7.08337H11.25V7.91671H18.3333V7.08337Z"/>
            <path d="M22.5 2.08337H14.5833V2.91671H22.5V2.08337Z"/>
            <path d="M13.75 2.08337H12.9167V2.91671H13.75V2.08337Z"/>
            <path d="M12.9166 16.6666H12.0833V17.5H12.9166V16.6666Z"/>
            <path d="M6.96124 2.79461L6.37207 2.20544L5.53874 3.03878C5.37608 3.20149 5.37608 3.46524 5.53874 3.62794L6.37207 4.46128L6.96124 3.87211L6.42249 3.33336L6.96124 2.79461Z"/>
            <path d="M10.2946 3.03878L9.46124 2.20544L8.87207 2.79461L9.41082 3.33336L8.87207 3.87211L9.46124 4.46128L10.2946 3.62794C10.4572 3.46524 10.4572 3.20149 10.2946 3.03878Z"/>
            <path d="M7.93836 1.95109L7.10425 4.45105L7.89435 4.71467L8.72846 2.21471L7.93836 1.95109Z"/>
            <path d="M21.6667 12.9167V9.58333H20.8334V12.9167H20V8.75H19.1667V12.9167H18.3334V10.8333H17.5V12.9167H16.6667V10.4167H15.8334V12.9167H15V11.25H14.1667V12.9167H13.3334V13.75H22.5V12.9167H21.6667Z"/>
            <path d="M22.0834 0H2.91669C1.53653 0.00135417 0.418041 1.11984 0.416687 2.5V10.6775V10.6812V15.4167V16.6667C0.418041 18.0468 1.53653 19.1653 2.91669 19.1667H8.07585L6.40919 22.5H4.16669C3.47632 22.5 2.91669 23.0596 2.91669 23.75C2.91669 24.4404 3.47632 25 4.16669 25H20.8334C21.5237 25 22.0834 24.4404 22.0834 23.75C22.0834 23.0596 21.5237 22.5 20.8334 22.5H18.5909L16.9242 19.1667H22.0834C23.4635 19.1653 24.582 18.0468 24.5834 16.6667V2.5C24.582 1.11984 23.4635 0.00135417 22.0834 0ZM1.25002 5.8625L2.1971 6.99C2.27627 7.08432 2.39315 7.13875 2.51627 7.13875H3.79169C3.91481 7.13875 4.03169 7.08432 4.11085 6.99L5.05835 5.8625L5.99335 6.16625L6.09669 7.63417C6.10523 7.75693 6.16762 7.86964 6.2671 7.94208L7.29919 8.69208C7.39903 8.76417 7.52549 8.7887 7.64502 8.75917L9.07544 8.40375L9.65377 9.19917L8.87419 10.4492C8.8096 10.554 8.79466 10.6819 8.83335 10.7987L9.22794 12.0117C9.26591 12.1286 9.35356 12.2229 9.46752 12.2692L10.8334 12.8229V13.8062L9.46669 14.36C9.35247 14.406 9.26466 14.5006 9.2271 14.6179L9.1021 15H6.70169C7.63544 13.045 6.80752 10.7032 4.85252 9.76943C3.70424 9.22099 2.36122 9.26359 1.25002 9.88375V5.8625ZM1.25002 10.875C2.59773 9.82359 4.54262 10.0638 5.59398 11.4116C6.40575 12.4521 6.46841 13.8929 5.75002 15H1.25002V10.875ZM20.8334 23.3333C21.0635 23.3333 21.25 23.5199 21.25 23.75C21.25 23.9801 21.0635 24.1667 20.8334 24.1667H4.16669C3.93658 24.1667 3.75002 23.9801 3.75002 23.75C3.75002 23.5199 3.93658 23.3333 4.16669 23.3333H20.8334ZM17.6592 22.5H7.34085L9.00752 19.1667H15.9925L17.6592 22.5ZM23.75 16.6667C23.75 17.5871 23.0038 18.3333 22.0834 18.3333H2.91669C1.99622 18.3333 1.25002 17.5871 1.25002 16.6667V15.8333H5.96752H5.97127H23.75V16.6667ZM23.75 15H10.1063L11.4067 14.4729C11.5638 14.4092 11.6666 14.2566 11.6667 14.0871V12.5417C11.6667 12.372 11.5639 12.2192 11.4067 12.1554L9.95835 11.5696L9.68419 10.7258L10.51 9.40083C10.5996 9.25688 10.593 9.07302 10.4934 8.93583L9.58502 7.68583C9.48528 7.54849 9.31226 7.48536 9.14752 7.52625L7.63252 7.90125L6.91669 7.38125L6.8071 5.82708C6.79518 5.65766 6.68158 5.5124 6.52002 5.46L5.05127 4.9825C4.88966 4.93104 4.71299 4.98182 4.60335 5.11125L3.60044 6.305H2.71169L1.70835 5.11125C1.59867 4.98167 1.42174 4.93083 1.26002 4.9825L1.25002 4.98625V2.5C1.25002 1.57953 1.99622 0.833333 2.91669 0.833333H22.0834C23.0038 0.833333 23.75 1.57953 23.75 2.5V15Z"/>
        </g>
    </symbol>
    <symbol id="designer" viewBox="0 0 25 25">
        <g>
            <path d="M20.2645 19.1457L19.6145 19.5793L21.1449 21.875H3.85469L5.67773 19.1406H15.6023V18.3594H5.46875C5.40446 18.3594 5.34115 18.3752 5.28446 18.4055C5.22777 18.4359 5.17943 18.4797 5.14375 18.5332L2.8 22.0488C2.75732 22.1131 2.7345 22.1885 2.73438 22.2656V23.4375C2.73438 23.6447 2.81668 23.8434 2.9632 23.9899C3.10971 24.1364 3.30842 24.2188 3.51562 24.2188H21.4844C21.6916 24.2188 21.8903 24.1364 22.0368 23.9899C22.1833 23.8434 22.2656 23.6447 22.2656 23.4375V22.2656C22.2655 22.1885 22.2427 22.1131 22.2 22.0488L20.2645 19.1457ZM3.51562 23.4375V22.6562H21.4844V23.4375H3.51562Z"/>
            <path d="M20.3125 0.78125H4.6875C4.37698 0.782177 4.07945 0.90594 3.85988 1.12551C3.64032 1.34508 3.51655 1.64261 3.51562 1.95312V12.1094C3.51655 12.4199 3.64032 12.7174 3.85988 12.937C4.07945 13.1566 4.37698 13.2803 4.6875 13.2812H10.1562V14.8438H8.59375C8.49015 14.8438 8.39079 14.8849 8.31754 14.9582C8.24428 15.0314 8.20312 15.1308 8.20312 15.2344V16.7969C8.20312 16.9005 8.24428 16.9998 8.31754 17.0731C8.39079 17.1463 8.49015 17.1875 8.59375 17.1875H16.4062C16.5099 17.1875 16.6092 17.1463 16.6825 17.0731C16.7557 16.9998 16.7969 16.9005 16.7969 16.7969V15.2344C16.7969 15.1308 16.7557 15.0314 16.6825 14.9582C16.6092 14.8849 16.5099 14.8438 16.4062 14.8438H14.8438V13.2812H20.3125C20.623 13.2803 20.9205 13.1566 21.1401 12.937C21.3597 12.7174 21.4834 12.4199 21.4844 12.1094V1.95312C21.4834 1.64261 21.3597 1.34508 21.1401 1.12551C20.9205 0.90594 20.623 0.782177 20.3125 0.78125ZM16.0156 15.625V16.4062H8.98438V15.625H16.0156ZM10.9375 14.8438V13.2812H14.0625V14.8438H10.9375ZM20.7031 12.1094C20.7031 12.213 20.662 12.3123 20.5887 12.3856C20.5155 12.4588 20.4161 12.5 20.3125 12.5H4.6875C4.5839 12.5 4.48454 12.4588 4.41129 12.3856C4.33803 12.3123 4.29688 12.213 4.29688 12.1094V10.9375H20.7031V12.1094ZM20.7031 10.1562H4.29688V1.95312C4.29688 1.84952 4.33803 1.75017 4.41129 1.67691C4.48454 1.60366 4.5839 1.5625 4.6875 1.5625H20.3125C20.4161 1.5625 20.5155 1.60366 20.5887 1.67691C20.662 1.75017 20.7031 1.84952 20.7031 1.95312V10.1562Z"/>
            <path d="M18.3594 11.3281H19.1406V12.1094H18.3594V11.3281Z"/>
            <path d="M8.98438 9.375H10.5469C10.6505 9.375 10.7498 9.33385 10.8231 9.26059C10.8963 9.18733 10.9375 9.08798 10.9375 8.98438V8.59375H14.0625V8.98438C14.0625 9.08798 14.1037 9.18733 14.1769 9.26059C14.2502 9.33385 14.3495 9.375 14.4531 9.375H16.0156C16.1192 9.375 16.2186 9.33385 16.2918 9.26059C16.3651 9.18733 16.4062 9.08798 16.4062 8.98438V7.42188C16.4062 7.31827 16.3651 7.21892 16.2918 7.14566C16.2186 7.0724 16.1192 7.03125 16.0156 7.03125H15.625V4.6875H16.0156C16.1192 4.6875 16.2186 4.64634 16.2918 4.57309C16.3651 4.49983 16.4062 4.40048 16.4062 4.29688V2.73438C16.4062 2.63077 16.3651 2.53142 16.2918 2.45816C16.2186 2.38491 16.1192 2.34375 16.0156 2.34375H14.4531C14.3495 2.34375 14.2502 2.38491 14.1769 2.45816C14.1037 2.53142 14.0625 2.63077 14.0625 2.73438V3.125H10.9375V2.73438C10.9375 2.63077 10.8963 2.53142 10.8231 2.45816C10.7498 2.38491 10.6505 2.34375 10.5469 2.34375H8.98438C8.88077 2.34375 8.78142 2.38491 8.70816 2.45816C8.6349 2.53142 8.59375 2.63077 8.59375 2.73438V4.29688C8.59375 4.40048 8.6349 4.49983 8.70816 4.57309C8.78142 4.64634 8.88077 4.6875 8.98438 4.6875H9.375V7.03125H8.98438C8.88077 7.03125 8.78142 7.0724 8.70816 7.14566C8.6349 7.21892 8.59375 7.31827 8.59375 7.42188V8.98438C8.59375 9.08798 8.6349 9.18733 8.70816 9.26059C8.78142 9.33385 8.88077 9.375 8.98438 9.375ZM15.625 8.59375H14.8438V7.8125H15.625V8.59375ZM14.8438 3.125H15.625V3.90625H14.8438V3.125ZM9.375 3.125H10.1562V3.90625H9.375V3.125ZM10.1562 4.6875H10.5469C10.6505 4.6875 10.7498 4.64634 10.8231 4.57309C10.8963 4.49983 10.9375 4.40048 10.9375 4.29688V3.90625H14.0625V4.29688C14.0625 4.40048 14.1037 4.49983 14.1769 4.57309C14.2502 4.64634 14.3495 4.6875 14.4531 4.6875H14.8438V7.03125H14.4531C14.3495 7.03125 14.2502 7.0724 14.1769 7.14566C14.1037 7.21892 14.0625 7.31827 14.0625 7.42188V7.8125H10.9375V7.42188C10.9375 7.31827 10.8963 7.21892 10.8231 7.14566C10.7498 7.0724 10.6505 7.03125 10.5469 7.03125H10.1562V4.6875ZM9.375 7.8125H10.1562V8.59375H9.375V7.8125Z"/>
            <path d="M8.98438 20.3125H14.4531V21.0938H8.98438V20.3125Z"/>
            <path d="M23.3867 14.3906L22.2813 13.2852C22.2449 13.2488 22.2016 13.22 22.154 13.2006C22.1064 13.1811 22.0553 13.1714 22.0039 13.1719C21.9531 13.1714 21.9026 13.1812 21.8556 13.2006C21.8086 13.2201 21.7661 13.2489 21.7305 13.2852L16.4805 18.5352C16.4377 18.5779 16.4055 18.6301 16.3867 18.6875L16.1094 19.5156C16.0871 19.5843 16.084 19.6577 16.1005 19.728C16.1171 19.7982 16.1526 19.8626 16.2031 19.9141L15.6523 20.4688L16.2031 21.0195L16.7578 20.4688C16.7936 20.5048 16.8363 20.5333 16.8832 20.5528C16.9301 20.5722 16.9804 20.5822 17.0312 20.582C17.0736 20.5816 17.1157 20.575 17.1562 20.5625L17.9844 20.2852C18.0418 20.2664 18.094 20.2342 18.1367 20.1914L23.3867 14.9414C23.4595 14.8682 23.5003 14.7692 23.5003 14.666C23.5003 14.5628 23.4595 14.4638 23.3867 14.3906ZM17.6523 19.5742L17.1406 19.7422L16.9258 19.5313L17.0977 19.0195L20.8984 15.2188L21.4531 15.7695L17.6523 19.5742ZM22.0039 15.2188L21.4531 14.668L22.0039 14.1133L22.5586 14.668L22.0039 15.2188Z"/>
        </g>
    </symbol>
</svg>